<svg xmlns="http://www.w3.org/2000/svg" width="180" height="82" viewBox="0 0 180 82"><g fill="none"><path fill="#91BD45" d="M35.1994187,64.0478641 C35.1994187,64.0478641 23.5374514,64.7248775 16.6641149,49.7480217 C15.7394137,57.2199371 17.303975,61.8351864 21.4775145,64.3203207 C25.651054,66.805455 32.0744243,66.2233887 35.1994187,64.0519923 L35.1994187,64.0478641 Z"/><path fill="#059713" d="M16.7095243 49.7397654C16.7095243 49.7397654 11.9580466 35.1757227 21.7953805 24.5623003 13.7125019 26.1846554 8.73397706 31.6461715 8.49867365 36.9508186 8.26337024 42.2554657 10.8021702 47.3495781 16.7095243 49.7397654ZM21.7995086 24.5623003C21.7995086 24.5623003 30.1796126 13.0530738 45.428925 17.6064012 37.6267592 10.5720676 24.350693 10.997265 21.7995086 24.5623003Z"/><path fill="#91BD45" d="M45.4247968,17.6064012 C45.4247968,17.6064012 56.3437008,20.9914678 61.6731167,35.1303132 C68.6785534,24.4797377 57.2725301,15.5547206 45.4247968,17.6064012 Z"/><path fill="#059713" d="M61.6772448 35.1303132C61.6772448 35.1303132 63.7619505 47.6509316 52.12888 58.933111 55.2125932 58.6606544 59.0847791 57.8309003 61.3882757 56.2498265 68.6331439 51.2713017 72.0264668 40.4143197 61.6772448 35.1303132ZM52.12888 58.933111C52.12888 58.933111 46.126579 65.0138466 35.1994187 64.0478641 49.4414674 74.0792201 54.8947272 67.1150648 52.12888 58.933111ZM7.78863528 56.518155C5.5924701 52.99686 4.72143466 48.5178389 4.60997515 42.8334039 2.02576575 45.9253733-.901078449 52.138209 2.51288509 58.7143201 6.13325514 65.6867318 11.8300746 67.3957776 16.701268 66.3224638 13.9312928 64.4152677 10.9012453 61.5131923 7.78863528 56.518155ZM61.078666 15.1419076C61.1818692 14.4772786 61.2107661 13.6722933 61.2107661 13.6722933 61.078666 4.36336005 55.4396403-1.13530916 46.510495.198076841 42.8199468.751246266 37.5483247 3.96705957 34.3531521 6.43568133 45.3422342 5.77105239 53.9576416 7.88052684 61.0745378 15.1419076L61.078666 15.1419076Z"/><path fill="#059713" d="M71.6425507,31.0558489 C73.5538749,37.2356595 72.9965774,45.3515632 70.9655374,51.8698805 C76.7366632,47.0647372 79.2052849,38.4617142 77.4384453,29.9577663 C75.8945247,22.5147478 68.1460246,16.4298842 61.0745378,15.1419076 C66.3420317,20.4382984 69.937633,25.5489234 71.6425507,31.0558489 L71.6425507,31.0558489 Z"/><path fill="#91BD45" d="M52.9792748 71.9408488C57.367477 73.1710315 62.3707707 71.788108 66.7878698 68.8777763 73.0502431 64.7537744 73.9460473 59.5564587 70.9655374 51.8657524 67.7579804 61.4553985 62.5069989 66.7352768 52.9792748 71.9408488L52.9792748 71.9408488ZM34.3531521 6.43568133C32.256062 4.07851908 29.1723489 1.86996951 25.4281349 2.85659259 21.7664836 3.82257501 18.3566482 7.89703936 17.4773565 14.6011225 23.2938917 9.61846959 25.1887034 8.17775221 34.3531521 6.43568133Z"/><path fill="#059713" d="M17.4773565 14.6011225C13.3079451 15.4308767 7.00429058 15.9056116 4.17239337 18.5806399-2.08172364 24.487994-.781362678 34.3500966 4.60997515 42.8334039 4.76271596 33.50383 4.91545678 24.3641501 17.4773565 14.6011225L17.4773565 14.6011225ZM16.701268 66.3265919C16.701268 72.7210654 19.1946586 78.6284194 27.3559717 80.5768968 38.5473322 83.247797 50.0111493 76.4528949 52.9792748 71.9449769 41.7590174 76.1556696 29.4448055 74.9708962 16.701268 66.3265919L16.701268 66.3265919Z"/><path fill="#E0DEA1" d="M21.366055,42.0985967 C22.096734,49.5085902 28.6439482,56.0640607 36.0828386,56.2993641 C38.5886135,56.3777985 41.0696197,55.8122447 43.4804476,55.122847 C45.7385347,54.4788587 48.0172625,53.694514 49.8501522,52.2290278 C53.875079,49.0090864 54.8658302,43.2338325 54.3333015,38.106695 C53.8792072,33.7556459 52.3765678,29.2559842 48.9956293,26.4777527 C44.5124801,22.7913325 35.1085999,21.7881969 30.1053063,25.0329072 C24.5901245,28.6078678 20.7096823,35.4935887 21.3619268,42.1027249 L21.366055,42.0985967 Z"/><g transform="translate(86 7)"><rect width="5.97" height="1.005" x="7.527" y="47" fill="#059713"/><polygon fill="#E0DEA1" points="26.415 43.378 22.281 43.378 22.281 46.358 26.047 46.358 26.047 48.776 22.281 48.776 22.281 53.681 18.849 53.681 18.849 40.468 26.42 40.468 26.42 43.378"/><path fill="#E0DEA1" d="M28.8277942 47.074619C28.8277942 46.0946232 29.0068798 45.1792972 29.3700254 44.3336156 29.733171 43.487934 30.2356054 42.7467189 30.8773285 42.114945 31.5190517 41.483171 32.2901143 40.9906859 33.1805673 40.6325148 34.0759949 40.2743438 35.0609653 40.1002329 36.1354784 40.1002329 37.2099915 40.1002329 38.1800381 40.2793184 39.0804403 40.6325148 39.9808425 40.9906859 40.7519052 41.483171 41.4035775 42.114945 42.0502752 42.7467189 42.5576842 43.4829594 42.9208298 44.3336156 43.2839754 45.1792972 43.463061 46.0946232 43.463061 47.074619 43.463061 48.0546147 43.2839754 48.9699407 42.9208298 49.8156224 42.5576842 50.661304 42.0552498 51.4025191 41.4035775 52.034293 40.7568798 52.6660669 39.9808425 53.1585521 39.0804403 53.5167231 38.1800381 53.8748942 37.2000423 54.0490051 36.1354784 54.0490051 35.0709145 54.0490051 34.0759949 53.8699196 33.1805673 53.5167231 32.2851397 53.1585521 31.5190517 52.6660669 30.8773285 52.034293 30.2356054 51.4025191 29.733171 50.6662786 29.3700254 49.8156224 29.0068798 48.9699407 28.8277942 48.0546147 28.8277942 47.074619L28.8277942 47.074619ZM32.4194539 47.074619C32.4194539 47.6019263 32.5189458 48.0844623 32.7179297 48.5272015 32.9169136 48.9699407 33.1855419 49.3579594 33.5238146 49.6813082 33.8620872 50.0096317 34.2550804 50.2633362 34.7077688 50.4424217 35.1554826 50.6215072 35.633044 50.7160246 36.1354784 50.7160246 36.6379128 50.7160246 37.1154742 50.6264818 37.563188 50.4424217 38.0109018 50.2633362 38.4088696 50.0096317 38.7570914 49.6813082 39.1003387 49.3529848 39.3739416 48.9699407 39.5729255 48.5272015 39.7719094 48.0844623 39.8714014 47.5969517 39.8714014 47.074619 39.8714014 46.5522862 39.7719094 46.0647756 39.5729255 45.6220364 39.3739416 45.1792972 39.1003387 44.7912786 38.7570914 44.4629551 38.4138442 44.1346317 38.0158764 43.8809272 37.563188 43.7018417 37.1154742 43.5227561 36.6379128 43.4282388 36.1354784 43.4282388 35.633044 43.4282388 35.1554826 43.5177815 34.7077688 43.7018417 34.260055 43.8809272 33.8620872 44.1396063 33.5238146 44.4629551 33.1855419 44.7912786 32.9169136 45.1743226 32.7179297 45.6220364 32.5189458 46.0647756 32.4194539 46.5522862 32.4194539 47.074619ZM46.1393946 47.074619C46.1393946 46.0946232 46.3184801 45.1792972 46.6816257 44.3336156 47.0447714 43.487934 47.5472058 42.7467189 48.1889289 42.114945 48.830652 41.483171 49.6017146 40.9906859 50.4921677 40.6325148 51.3875953 40.2743438 52.3725656 40.1002329 53.4470787 40.1002329 54.5215919 40.1002329 55.4916384 40.2793184 56.3920406 40.6325148 57.2924428 40.9906859 58.0635055 41.483171 58.7151778 42.114945 59.3618755 42.7467189 59.8692845 43.4829594 60.2324301 44.3336156 60.5955758 45.1792972 60.7746613 46.0946232 60.7746613 47.074619 60.7746613 48.0546147 60.5955758 48.9699407 60.2324301 49.8156224 59.8692845 50.661304 59.3668501 51.4025191 58.7151778 52.034293 58.0684801 52.6660669 57.2924428 53.1585521 56.3920406 53.5167231 55.4916384 53.8748942 54.5116427 54.0490051 53.4470787 54.0490051 52.3825148 54.0490051 51.3875953 53.8699196 50.4921677 53.5167231 49.5967401 53.1585521 48.830652 52.6660669 48.1889289 52.034293 47.5472058 51.4025191 47.0447714 50.6662786 46.6816257 49.8156224 46.3184801 48.9699407 46.1393946 48.0546147 46.1393946 47.074619ZM49.7310542 47.074619C49.7310542 47.6019263 49.8305461 48.0844623 50.0295301 48.5272015 50.228514 48.9699407 50.4971423 49.3579594 50.8354149 49.6813082 51.1736876 50.0096317 51.5666808 50.2633362 52.0193692 50.4424217 52.467083 50.6215072 52.9446444 50.7160246 53.4470787 50.7160246 53.9495131 50.7160246 54.4270745 50.6264818 54.8747883 50.4424217 55.3225021 50.2633362 55.7204699 50.0096317 56.0686918 49.6813082 56.411939 49.3529848 56.6855419 48.9699407 56.8845258 48.5272015 57.0835097 48.0844623 57.1830017 47.5969517 57.1830017 47.074619 57.1830017 46.5522862 57.0835097 46.0647756 56.8845258 45.6220364 56.6855419 45.1792972 56.411939 44.7912786 56.0686918 44.4629551 55.7254445 44.1346317 55.3274767 43.8809272 54.8747883 43.7018417 54.4270745 43.5227561 53.9495131 43.4282388 53.4470787 43.4282388 52.9446444 43.4282388 52.467083 43.5177815 52.0193692 43.7018417 51.5716554 43.8809272 51.1736876 44.1396063 50.8354149 44.4629551 50.4971423 44.7912786 50.228514 45.1743226 50.0295301 45.6220364 49.8305461 46.0647756 49.7310542 46.5522862 49.7310542 47.074619ZM63.5952583 40.4683531 68.6792972 40.4683531C69.5796994 40.4683531 70.4204064 40.6474386 71.2113675 41.0105843 72.0023285 41.3737299 72.688823 41.8562659 73.2808002 42.4581922 73.8727773 43.0601185 74.3354149 43.7615368 74.6736876 44.5624471 75.0119602 45.3633573 75.1810965 46.1990898 75.1810965 47.0795936 75.1810965 47.9600974 75.0119602 48.7759314 74.6836367 49.5768417 74.3503387 50.3777519 73.8877011 51.0791702 73.3006986 51.6860711 72.7087214 52.2929721 72.0222269 52.7804826 71.2312659 53.1386537 70.4403048 53.5017993 69.5946232 53.6808848 68.6792972 53.6808848L63.5952583 53.6808848 63.5952583 40.4683531 63.5952583 40.4683531ZM67.0277307 50.7707451 67.8186918 50.7707451C68.4156435 50.7707451 68.9479255 50.6762278 69.4155377 50.4921677 69.8831499 50.3031329 70.2761431 50.0494285 70.599492 49.721105 70.9228408 49.3927815 71.1665961 49.0047629 71.3357324 48.5570491 71.5048688 48.1093353 71.5894369 47.6118755 71.5894369 47.074619 71.5894369 46.5373624 71.4998942 46.059801 71.3257832 45.602138 71.1516723 45.144475 70.9029424 44.7564564 70.5795936 44.4281329 70.2562447 44.0998095 69.8632515 43.846105 69.3956393 43.6570703 68.9280271 43.4680356 68.4007197 43.3784928 67.8186918 43.3784928L67.0277307 43.3784928 67.0277307 50.7757197 67.0277307 50.7707451Z"/><rect width="5.97" height="1.005" x="80.504" y="47" fill="#059713"/><path fill="#E0DEA1" d="M11.1480737 8.62097798 13.9686706 8.62097798C13.9686706 9.05874259 13.7995343 9.56615157 13.6353726 9.83477985 13.4712108 10.1034081 13.2622777 10.3222904 13.0135478 10.4914268 12.7598434 10.6605631 12.4762913 10.784928 12.1628916 10.859547 11.849492 10.934166 11.5211685 10.9739627 11.1828959 10.9739627 10.6108171 10.9739627 10.1083827 10.8794454 9.67559272 10.6854361 9.24280271 10.4914268 8.87965707 10.2227985 8.5911304 9.86960203 8.29762913 9.51640559 8.07874682 9.10351397 7.93448349 8.62595258 7.79022015 8.14839119 7.71560119 7.62605843 7.71560119 7.06890347 7.71560119 6.44707875 7.80016935 5.88992379 7.96930567 5.38748942 8.138442 4.88505504 8.37224809 4.45723963 8.67072396 4.09906859 8.96919983 3.74089754 9.32737087 3.46729467 9.75021169 3.27328535 10.1730525 3.07927604 10.6356901 2.98475868 11.1530483 2.98475868 11.7698984 2.98475868 12.3220787 3.14394581 12.8095893 3.45734547 13.2921253 3.77074513 13.6801439 4.2881033 13.9835944 4.99947079L17.0081499 3.23846317C16.4261219 2.20872142 15.6898815 1.41776037 14.7795301.895427604 13.7398391.298475868 12.5310119 0 11.1530483 0 10.0884843 0 9.12341236.169136325 8.26280694.507408975 7.39722693.845681626 6.66098645 1.31826842 6.04413633 1.92516935 5.4322608 2.53207028 4.95967401 3.26831075 4.62637595 4.12394157 4.2930779 4.98454699 4.12891617 5.92474598 4.12891617 6.95448772 4.12891617 7.98422947 4.2980525 8.94432684 4.63632515 9.79995766 4.9745978 10.6605631 5.44718459 11.3968036 6.05408552 12.0086791 6.66098645 12.6205546 7.38727773 13.098116 8.23793395 13.4363887 9.08361558 13.7746613 10.0238146 13.9437976 11.0485817 13.9437976 11.7947714 13.9437976 12.5061389 13.8492803 13.1876588 13.6652202 13.8642041 13.4761854 14.4860288 13.2075572 15.0531329 12.8493861 15.6202371 12.4912151 16.1127223 12.0484759 16.5355631 11.5161939 16.9584039 10.9839119 17.2867273 10.377011 17.5354572 9.68554191 17.7095682 9.19305673 17.8289585 8.66077477 17.8836791 8.08869602 17.9433743 7.51661727 17.9732218 6.87986876 17.9732218 6.17845047L11.1580229 6.17845047 11.1580229 8.61102879 11.1480737 8.62097798ZM24.4451736 9.57610076 24.4451736 13.5856266 21.0127011 13.5856266 21.0127011.373094835 26.3603937.373094835C28.0865792.373094835 29.733171 1.55704911 30.2107324 3.20364098 30.8823031 5.53175275 30.0614945 7.86483912 27.4150085 8.68067316 27.3851609 8.69062235 28.3203853 10.6854361 30.7032176 10.6854361 30.7032176 10.6854361 30.7032176 13.3219729 30.7032176 13.6652202 26.0569433 13.6652202 24.4551228 9.67559272 24.4551228 9.58107536L24.4451736 9.57610076ZM24.4451736 6.94453853 25.0918713 6.94453853C26.2260796 6.94453853 27.3155165 6.36251058 27.3155165 5.06414056 27.3155165 3.36780271 26.1116638 3.01958086 24.4451736 3.01958086L24.4451736 6.94453853 24.4451736 6.94453853ZM83.6279636 9.57610076 83.6279636 13.5856266 80.1954911 13.5856266 80.1954911.373094835 85.5431837.373094835C87.2693692.373094835 88.915961 1.55704911 89.3935224 3.20364098 90.0650931 5.53175275 89.2442845 7.86483912 86.5977985 8.68067316 86.5679509 8.69062235 87.5031753 10.6854361 89.8860076 10.6854361 89.8860076 10.6854361 89.8860076 13.3219729 89.8860076 13.6652202 85.2397333 13.6652202 83.6379128 9.67559272 83.6379128 9.58107536L83.6279636 9.57610076ZM83.6279636 6.94453853 84.2746613 6.94453853C85.4088696 6.94453853 86.4983065 6.36251058 86.4983065 5.06414056 86.4983065 3.36780271 85.2944539 3.01958086 83.6279636 3.01958086L83.6279636 6.94453853 83.6279636 6.94453853Z"/><polygon fill="#E0DEA1" points="41.344 3.283 37.26 3.283 37.26 6.263 41.115 6.263 41.115 8.681 37.26 8.681 37.26 10.68 41.344 10.68 41.344 13.591 33.827 13.591 33.827 .378 41.344 .378 41.344 3.288"/><polygon fill="#E0DEA1" points="77.066 3.283 72.982 3.283 72.982 6.263 76.838 6.263 76.838 8.681 72.982 8.681 72.982 10.68 77.066 10.68 77.066 13.591 69.55 13.591 69.55 .378 77.066 .378 77.066 3.288"/><polygon fill="#E0DEA1" points="63.605 3.283 63.605 13.586 60.173 13.586 60.173 3.283 57.352 3.283 57.352 .373 66.431 .373 66.431 3.283 63.61 3.283"/><path fill="#E0DEA1" d="M52.775508,10.6854361 L48.3083192,10.6854361 L47.2984759,13.6254234 L43.6371719,13.6254234 L48.8256774,0.412891617 L52.2581499,0.412891617 L57.4466554,13.6254234 L53.7853514,13.6254234 L52.775508,10.6854361 L52.775508,10.6854361 Z M51.9198772,8.25285775 L50.5419136,4.32292549 L49.16395,8.25285775 L51.9198772,8.25285775 L51.9198772,8.25285775 Z"/><polygon fill="#E0DEA1" points="17.157 26.365 22.117 26.365 22.117 20.426 25.55 20.426 25.55 33.638 22.117 33.638 22.117 28.698 17.157 28.698 17.157 33.638 13.725 33.638 13.725 20.426 17.157 20.426"/><path fill="#E0DEA1" d="M10.1133573,24.3307578 C9.16818374,23.6144157 8.33742591,23.3855843 7.16839543,23.3855843 C6.65601185,23.3855843 6.17845047,23.4801016 5.74068586,23.6641617 C5.30292125,23.8531964 4.92485182,24.1069009 4.61145216,24.4252752 C4.2980525,24.748624 4.04932261,25.1316681 3.86526249,25.5744073 C3.68617697,26.0171465 3.59165961,26.4947079 3.59165961,27.012066 C3.59165961,27.5294242 3.68120237,28.0219094 3.86526249,28.4646486 C4.04434801,28.9073878 4.2980525,29.2954064 4.61642676,29.6237299 C4.93977561,29.9520533 5.31287045,30.2057578 5.74566046,30.3947925 C6.47195174,30.7081922 7.29276037,30.7280906 8.06382303,30.6335732 C8.40209568,30.5888019 8.73041914,30.5241321 9.0487934,30.4146909 C9.18808213,30.364945 10.1083827,30.0366215 10.1083827,29.8923582 L10.1083827,33.3397544 L9.76016088,33.4641194 C9.23285351,33.6531541 8.74534293,33.7874682 8.28767993,33.877011 C7.83001693,33.9665538 7.38230313,34.0063506 6.93956393,34.0063506 C6.02921253,34.0063506 5.15368332,33.8322396 4.31795089,33.4889924 C3.48221846,33.1457451 2.74597798,32.6582345 2.10922947,32.0364098 C1.47248095,31.4096105 0.960097375,30.6683954 0.577053345,29.8127646 C0.194009314,28.9471846 0,28.0119602 0,26.9921677 C0,25.9723751 0.189034716,25.0421253 0.572078747,24.1964437 C0.95014818,23.3507621 1.45755715,22.6194962 2.09430567,22.0076207 C2.73105419,21.3957451 3.46729467,20.9132091 4.31297629,20.5699619 C5.15368332,20.2267146 6.03418713,20.0526037 6.95946232,20.0526037 C7.48676969,20.0526037 8.00412786,20.1073243 8.51153683,20.2167655 C9.01894581,20.3262066 9.55620237,20.5003175 10.1133573,20.7341236 L10.1133573,24.3257832 L10.1133573,24.3307578 Z"/><polygon fill="#E0DEA1" points="32.628 20.421 32.628 33.633 29.196 33.633 29.196 20.421"/><path fill="#E0DEA1" d="M45.7911727 24.3307578C44.8459992 23.6144157 44.0152413 23.3855843 42.8462108 23.3855843 42.3338273 23.3855843 41.8562659 23.4801016 41.4185013 23.6641617 40.9807367 23.8531964 40.6026672 24.1069009 40.2892676 24.4252752 39.9758679 24.748624 39.727138 25.1316681 39.5430779 25.5744073 39.3639924 26.0171465 39.269475 26.4947079 39.269475 27.012066 39.269475 27.5294242 39.3590178 28.0219094 39.5430779 28.4646486 39.7221634 28.9073878 39.9758679 29.2954064 40.2942422 29.6237299 40.617591 29.9520533 40.9906859 30.2057578 41.4234759 30.3947925 42.1497671 30.7081922 42.9705758 30.7280906 43.7416384 30.6335732 44.0799111 30.5888019 44.4082345 30.5241321 44.7266088 30.4146909 44.8658975 30.364945 45.7861981 30.0366215 45.7861981 29.8923582L45.7861981 33.3397544 45.4379763 33.4641194C44.9106689 33.6531541 44.4231583 33.7874682 43.9654953 33.877011 43.5078323 33.9665538 43.0601185 34.0063506 42.6173793 34.0063506 41.7070279 34.0063506 40.8314987 33.8322396 39.9957663 33.4889924 39.1600339 33.1457451 38.4237934 32.6582345 37.7870449 32.0364098 37.1502964 31.4096105 36.6379128 30.6683954 36.2548688 29.8127646 35.8668501 28.9521592 35.6778154 28.0169348 35.6778154 27.0021169 35.6778154 25.9872989 35.8668501 25.0520745 36.2498942 24.2063929 36.6279636 23.3607113 37.1353726 22.6294454 37.7721211 22.0175699 38.4088696 21.4056943 39.1451101 20.9231583 39.9907917 20.5799111 40.8314987 20.2366638 41.7120025 20.0625529 42.6372777 20.0625529 43.1645851 20.0625529 43.6819433 20.1172735 44.1893522 20.2267146 44.6967612 20.3361558 45.2340178 20.5102667 45.7911727 20.7440728L45.7911727 24.3357324 45.7911727 24.3307578ZM79.3647333 27.0269898C79.3647333 26.0469941 79.5438188 25.1316681 79.9069644 24.2859865 80.2701101 23.4403048 80.7725445 22.6990898 81.4142676 22.0673158 82.0559907 21.4355419 82.8270533 20.9430567 83.7175064 20.5848857 84.612934 20.2267146 85.5979043 20.0526037 86.6724174 20.0526037 87.7469306 20.0526037 88.7169771 20.2316892 89.6173793 20.5848857 90.5177815 20.9430567 91.2888442 21.4355419 91.9405165 22.0673158 92.5872142 22.6990898 93.0946232 23.4353302 93.4577688 24.2859865 93.8209145 25.1316681 94 26.0469941 94 27.0269898 94 28.0069856 93.8209145 28.9223116 93.4577688 29.7679932 93.0946232 30.6136749 92.5921888 31.3548899 91.9405165 31.9866638 91.2888442 32.6184378 90.5177815 33.1109229 89.6173793 33.469094 88.7169771 33.827265 87.7369814 34.001376 86.6724174 34.001376 85.6078535 34.001376 84.612934 33.8222904 83.7175064 33.469094 82.8220787 33.1109229 82.0559907 32.6184378 81.4142676 31.9866638 80.7725445 31.3548899 80.2701101 30.6186494 79.9069644 29.7679932 79.5438188 28.9223116 79.3647333 28.0069856 79.3647333 27.0269898ZM82.9563929 27.0269898C82.9563929 27.5542972 83.0558848 28.0368332 83.2548688 28.4795724 83.4538527 28.9223116 83.7224809 29.3103302 84.0607536 29.6336791 84.3990262 29.9620025 84.7920195 30.215707 85.2447079 30.3947925 85.6924217 30.5738781 86.1699831 30.6683954 86.6724174 30.6683954 87.1748518 30.6683954 87.6524132 30.5788527 88.100127 30.3947925 88.5478408 30.215707 88.9458086 29.9620025 89.2940305 29.6336791 89.6372777 29.3053556 89.9108806 28.9223116 90.1098645 28.4795724 90.3088484 28.0368332 90.4083404 27.5493226 90.4083404 27.0269898 90.4083404 26.5046571 90.3088484 26.0171465 90.1098645 25.5744073 89.9108806 25.1316681 89.6372777 24.7436494 89.2940305 24.415326 88.9507832 24.0870025 88.5528154 23.8332981 88.100127 23.6542125 87.6524132 23.475127 87.1748518 23.3806097 86.6724174 23.3806097 86.1699831 23.3806097 85.6924217 23.4701524 85.2447079 23.6542125 84.7969941 23.8332981 84.3990262 24.0919771 84.0607536 24.415326 83.7224809 24.7436494 83.4538527 25.1266935 83.2548688 25.5744073 83.0558848 26.0221211 82.9563929 26.5046571 82.9563929 27.0269898ZM57.45163 30.698243 52.9844412 30.698243 51.9745978 33.6382303 48.3132938 33.6382303 53.5017993 20.4256986 56.9342718 20.4256986 62.1227773 33.6382303 58.4614733 33.6382303 57.45163 30.698243ZM56.5959992 28.2656647 55.2180356 24.3357324 53.840072 28.2656647 56.5959992 28.2656647 56.5959992 28.2656647ZM70.0970576 26.2410034 70.0970576 28.6735817 72.9176545 28.6735817C72.9176545 29.1113463 72.7485182 29.6187553 72.5843565 29.8873836 72.4201948 30.1560119 72.2112616 30.3748942 71.9625318 30.5440305 71.7088273 30.7131668 71.4252752 30.8375318 71.1118755 30.9121507 70.7984759 30.9867697 70.4701524 31.0265665 70.1318798 31.0265665 69.559801 31.0265665 69.0573666 30.9320491 68.6245766 30.7380398 68.1917866 30.5440305 67.828641 30.2754022 67.5401143 29.9222058 67.246613 29.5739839 67.0277307 29.1561177 66.8834674 28.6785563 66.7392041 28.2009949 66.6645851 27.6786622 66.6645851 27.1215072 66.6645851 26.4996825 66.7491533 25.9425275 66.9182896 25.4400931 67.0874259 24.9376588 67.321232 24.5098434 67.6197079 24.1516723 67.9181837 23.7935013 68.2763548 23.5198984 68.6991956 23.3258891 69.1220364 23.1318798 69.5896486 23.0373624 70.1020322 23.0373624 70.7188823 23.0373624 71.2710627 23.1965495 71.7585732 23.5099492 72.2411092 23.8233489 72.6341025 24.3456816 72.9375529 25.0669983L75.9621084 23.3059907C75.3800804 22.2712743 74.64384 21.4753387 73.728514 20.9530059 72.688823 20.3560542 71.4799958 20.0575783 70.1020322 20.0575783 69.0374682 20.0575783 68.0723963 20.2267146 67.2117909 20.5649873 66.3462108 20.9032599 65.6099704 21.3758467 64.9931202 21.9827477 64.3812447 22.5896486 63.9086579 23.3258891 63.5753599 24.1815199 63.2420618 25.0421253 63.0779001 25.9823243 63.0779001 27.012066 63.0779001 28.0418078 63.2470364 29.0019052 63.5853091 29.857536 63.9235817 30.7181414 64.3961685 31.4543819 65.0030694 32.0662574 65.6099704 32.6781329 66.3362616 33.1556943 67.1869179 33.493967 68.0325995 33.8322396 68.9727985 34.001376 69.9975656 34.001376 70.7437553 34.001376 71.4551228 33.9068586 72.1366427 33.7227985 72.813188 33.5337638 73.4350127 33.2651355 74.0021169 32.9069644 74.569221 32.5487934 75.0617062 32.1060542 75.484547 31.5737722 75.9073878 31.0414903 76.2357113 30.4296147 76.4844412 29.7431202 76.6585521 29.2506351 76.7779424 28.7233277 76.832663 28.1462743 76.8923582 27.5741956 76.9222058 26.9374471 76.9222058 26.2360288L70.1070068 26.2360288 70.0970576 26.2410034ZM4.44729043 60.5209568 5.90982218 60.5209568C6.63113887 60.5209568 7.65093141 60.5955758 8.55133362 61.3566892 9.20798052 61.903895 9.77508467 62.819221 9.77508467 64.1076418 9.77508467 65.6099704 9.0338696 66.4158552 8.51651143 66.8585944 7.85986452 67.4157494 7.17337003 67.6843776 5.89489839 67.6843776L4.44729043 67.6843776 4.44729043 60.5209568 4.44729043 60.5209568ZM5.24322608 66.9332134 5.93966977 66.9332134C6.50677392 66.9332134 7.29276037 66.8685436 7.98920406 66.2865157 8.52646063 65.8338273 8.95427604 65.1274344 8.95427604 64.1076418 8.95427604 62.3914056 7.75042337 61.2721211 5.93469517 61.2721211L5.23825148 61.2721211 5.23825148 66.9332134 5.24322608 66.9332134Z"/><polygon fill="#E0DEA1" points="18.083 61.272 15.163 61.272 15.163 64.068 17.998 64.068 17.998 64.819 15.163 64.819 15.163 66.933 18.083 66.933 18.083 67.684 14.367 67.684 14.367 60.521 18.083 60.521"/><path fill="#E0DEA1" d="M31.0564141 64.1076418C31.0564141 61.9685648 32.7229043 60.4015665 34.7823878 60.4015665 36.8418713 60.4015665 38.5083616 61.9685648 38.5083616 64.1076418 38.5083616 66.2467189 36.8567951 67.8137172 34.7823878 67.8137172 32.7079805 67.8137172 31.0564141 66.2367697 31.0564141 64.1076418ZM31.8722481 64.1076418C31.8722481 65.7492591 33.1706181 67.0625529 34.7823878 67.0625529 36.3941575 67.0625529 37.6925275 65.7492591 37.6925275 64.1076418 37.6925275 62.4660246 36.3941575 61.1527307 34.7823878 61.1527307 33.1706181 61.1527307 31.8722481 62.46105 31.8722481 64.1076418ZM45.9453853 61.9387172C45.8508679 61.7447079 45.6867062 61.5308002 45.5275191 61.4014606 45.3882303 61.2969941 45.1295512 61.1527307 44.7216342 61.1527307 44.0152413 61.1527307 43.5177815 61.5954699 43.5177815 62.2570914 43.5177815 62.5356689 43.5924005 62.6998307 43.7864098 62.8789162 44.0003175 63.0928239 44.2689458 63.2122142 44.5375741 63.3316046L45.2240686 63.6300804C45.6419348 63.8141406 46.0299534 64.0081499 46.3284293 64.3066257 46.6915749 64.6697714 46.8457875 65.0926122 46.8457875 65.6049958 46.8457875 66.9232642 45.8707663 67.803768 44.5823455 67.803768 44.1097587 67.803768 43.5177815 67.7092506 43.0252964 67.2217401 42.6720999 66.8784928 42.4581922 66.3860076 42.3587003 65.9532176L43.1297629 65.7393099C43.1844835 66.1173793 43.3536198 66.4357536 43.5575783 66.6546359 43.870978 66.9680356 44.2241744 67.0526037 44.5873201 67.0526037 45.5623412 67.0526037 46.0249788 66.35616 46.0249788 65.6348434 46.0249788 65.3114945 45.9304615 65.032917 45.6717824 64.7991109 45.4678239 64.6051016 45.1892464 64.4757621 44.811177 64.3066257L44.1644793 64.0081499C43.8859018 63.8788103 43.5327053 63.7295724 43.2093565 63.4161727 42.8959568 63.1176969 42.7168713 62.7843988 42.7168713 62.2471423 42.7168713 61.1427815 43.5675275 60.4015665 44.7266088 60.4015665 45.169348 60.4015665 45.5225445 60.4861346 45.8757409 60.7249153 46.1642676 60.9189246 46.4129975 61.2074513 46.5721846 61.520851L45.9404107 61.9387172 45.9453853 61.9387172Z"/><polygon fill="#E0DEA1" points="52.562 60.521 52.562 67.684 51.766 67.684 51.766 60.521"/><polygon fill="#E0DEA1" points="60.019 61.272 60.019 67.684 59.223 67.684 59.223 61.272 57.481 61.272 57.481 60.521 61.755 60.521 61.755 61.272 60.014 61.272"/><path fill="#E0DEA1" d="M65.0130186,64.1076418 C65.0130186,61.9685648 66.6795089,60.4015665 68.7389924,60.4015665 C70.7984759,60.4015665 72.4649661,61.9685648 72.4649661,64.1076418 C72.4649661,66.2467189 70.8084251,67.8137172 68.7389924,67.8137172 C66.6695597,67.8137172 65.0130186,66.2367697 65.0130186,64.1076418 Z M65.8288527,64.1076418 C65.8288527,65.7492591 67.1272227,67.0625529 68.7389924,67.0625529 C70.3507621,67.0625529 71.6491321,65.7492591 71.6491321,64.1076418 C71.6491321,62.4660246 70.3507621,61.1527307 68.7389924,61.1527307 C67.1272227,61.1527307 65.8288527,62.46105 65.8288527,64.1076418 Z"/><polygon fill="#E0DEA1" points="86.379 64.6 84.026 60.521 84.951 60.521 86.777 63.72 88.622 60.521 89.548 60.521 87.175 64.6 87.175 67.684 86.379 67.684 86.379 64.6"/><path fill="#E0DEA1" d="M78.8026037 64.9533235C78.9717401 64.9284505 79.1359018 64.8986029 79.3000635 64.8538315 79.9218882 64.6797206 80.2949831 64.2867273 80.5486876 63.6947502 80.7078747 63.32663 80.7277731 62.9137384 80.6730525 62.5157705 80.6233065 62.1277519 80.4989416 61.7397333 80.2601609 61.4263336 79.8422947 60.8741533 79.3448349 60.630398 78.6583404 60.5607536 78.1957028 60.5159822 76.6635267 60.506033 76.6237299 60.5209568 76.5739839 60.5358806 76.5839331 60.5607536 76.5839331 60.6204488L76.5839331 67.694327 77.3798688 67.694327 77.3798688 65.0229678C77.5888019 65.0229678 77.797735 65.0229678 78.0066681 65.0179932 78.1360076 65.540326 78.3001693 66.0775826 78.6434166 66.5352456 79.5239204 67.6993014 80.5735605 67.694327 80.7029001 67.694327L80.7029001 66.9033658C79.4990474 66.7939246 78.9717401 65.6497671 78.8075783 64.9582981L78.8026037 64.9533235ZM77.3748942 64.3066257 77.3748942 61.2770957 77.8574301 61.2770957C79.1906224 61.2770957 79.8920406 61.6999365 79.8920406 62.8042972 79.8920406 63.7743438 79.3746825 64.3066257 78.0514395 64.3066257L77.3748942 64.3066257ZM23.8084251 65.0130186 23.8084251 67.6843776 23.0124894 67.6843776 23.0124894 60.7696867C23.0124894 60.7149661 23.0124894 60.6652202 23.0124894 60.6104996 23.0124894 60.5508044 22.9975656 60.530906 23.0522862 60.5110076 23.092083 60.5010584 24.6292337 60.5110076 25.0868967 60.5508044 25.7733912 60.6204488 26.270851 60.8642041 26.6887172 61.4163844 26.9274979 61.7297841 27.0518628 62.1178027 27.1016088 62.5058213 27.1563294 62.9037892 27.136431 63.3166808 26.9772439 63.684801 26.7235394 64.2767782 26.3504445 64.6697714 25.7286198 64.8438823 25.1067951 65.0179932 24.4501482 65.008044 23.8084251 65.008044L23.8084251 65.0130186ZM23.8084251 64.3016511 24.4849704 64.3016511C25.8082134 64.3016511 26.3255715 63.7693692 26.3255715 62.7993226 26.3255715 61.6949619 25.6241533 61.2721211 24.290961 61.2721211L23.8084251 61.2721211 23.8084251 64.3016511ZM93.5572608 65.2269263C93.8756351 65.5453006 94 65.9183954 94 66.3113887 94 66.7591025 93.8358383 67.1023497 93.592083 67.3560542 93.3781753 67.5799111 93.0249788 67.8087426 92.4976715 67.8087426 92.1096528 67.8087426 91.7166596 67.6694539 91.4181837 67.370978 91.1246825 67.0774767 90.9953429 66.6894581 90.9953429 66.2964649 90.9953429 65.8238781 91.1843776 65.4458086 91.4579805 65.1921041 91.7415326 64.9185013 92.1146274 64.7891617 92.4976715 64.7891617 92.7961473 64.7891617 93.2040644 64.8687553 93.5572608 65.2169771L93.5572608 65.2269263ZM91.6669136 65.4109865C91.4828535 65.5950466 91.2987934 65.8835732 91.2987934 66.2964649 91.2987934 66.6695597 91.4530059 66.9978831 91.6519898 67.1968671 91.8509738 67.395851 92.169348 67.5450889 92.4976715 67.5450889 92.8259949 67.5450889 93.109547 67.4157494 93.3234547 67.2018417 93.467718 67.0625529 93.6965495 66.7740262 93.6965495 66.3163633 93.6965495 65.8587003 93.4826418 65.5701736 93.3234547 65.4060119 93.0697502 65.1523074 92.7712743 65.0627646 92.4976715 65.0627646 92.1892464 65.0627646 91.9106689 65.1622566 91.6669136 65.4109865ZM92.5026461 65.465707C92.6170618 65.465707 92.7911727 65.4756562 92.9205123 65.6049958 92.9901566 65.6746401 93.0498518 65.7940305 93.0498518 65.9631668 93.0498518 66.0576842 93.0299534 66.1820491 92.9354361 66.2765665 92.8707663 66.3462108 92.7712743 66.3909822 92.6568586 66.4108806L93.1791914 67.0874259 92.7961473 67.0874259 92.3136113 66.4705758 92.3136113 67.0874259 91.9852879 67.0874259 91.9852879 65.4706816 92.4976715 65.4706816 92.5026461 65.465707ZM92.3185859 66.1969729 92.4479255 66.1969729C92.5623412 66.1969729 92.6220364 66.1571761 92.6469094 66.1323031 92.6966554 66.0825572 92.7066046 66.0178874 92.7066046 65.9681414 92.7066046 65.8835732 92.676757 65.8288527 92.6469094 65.8039797 92.5921888 65.7542337 92.5026461 65.7542337 92.4628493 65.7542337L92.3185859 65.7542337 92.3185859 66.2019475 92.3185859 66.1969729Z"/></g></g></svg>